<?xml version="1.0" standalone="no"?><svg xmlns="http://www.w3.org/2000/svg" viewBox="0 0 1440 320"><path fill="#000000" fill-opacity="1" d="M0,320L11.4,288C22.9,256,46,192,69,176C91.4,160,114,192,137,181.3C160,171,183,117,206,133.3C228.6,149,251,235,274,245.3C297.1,256,320,192,343,165.3C365.7,139,389,149,411,181.3C434.3,213,457,267,480,277.3C502.9,288,526,256,549,240C571.4,224,594,224,617,208C640,192,663,160,686,144C708.6,128,731,128,754,144C777.1,160,800,192,823,192C845.7,192,869,160,891,154.7C914.3,149,937,171,960,202.7C982.9,235,1006,277,1029,277.3C1051.4,277,1074,235,1097,229.3C1120,224,1143,256,1166,261.3C1188.6,267,1211,245,1234,213.3C1257.1,181,1280,139,1303,128C1325.7,117,1349,139,1371,176C1394.3,213,1417,267,1429,293.3L1440,320L1440,0L1428.6,0C1417.1,0,1394,0,1371,0C1348.6,0,1326,0,1303,0C1280,0,1257,0,1234,0C1211.4,0,1189,0,1166,0C1142.9,0,1120,0,1097,0C1074.3,0,1051,0,1029,0C1005.7,0,983,0,960,0C937.1,0,914,0,891,0C868.6,0,846,0,823,0C800,0,777,0,754,0C731.4,0,709,0,686,0C662.9,0,640,0,617,0C594.3,0,571,0,549,0C525.7,0,503,0,480,0C457.1,0,434,0,411,0C388.6,0,366,0,343,0C320,0,297,0,274,0C251.4,0,229,0,206,0C182.9,0,160,0,137,0C114.3,0,91,0,69,0C45.7,0,23,0,11,0L0,0Z"></path></svg>